<?xml version="1.0"?>
<svg width="856" height="856" xmlns="http://www.w3.org/2000/svg" xmlns:svg="http://www.w3.org/2000/svg">
 <g class="layer">
  <title>Layer 1</title>
  <path d="m670.84,687.9l0.74,0.17l0.08,15.93l-15.74,-0.03c0.29,-5.28 0.08,-10.69 0.1,-15.98q7.41,0.05 14.82,-0.09z" fill="#302F50" id="svg_1" transform="translate(17 -174) scale(0.836773 0.836773)"/>
  <path d="m387.16,552.94l16.04,-0.13c-0.24,5.34 -0.07,10.74 -0.07,16.08c-5.28,-0.24 -10.67,-0.05 -15.96,-0.06c0.13,-5.29 0.01,-10.6 -0.01,-15.89z" fill="#1A1923" id="svg_2" transform="matrix(0.836773 0 0 0.836773 0 0)"/>
  <path d="m575.99,768.02q7.99,0.04 15.97,-0.19q-0.24,8.09 -0.1,16.17c-5.24,-0.03 -10.61,-0.31 -15.83,0.1l-0.3,-0.09c1.08,-4.78 0.3,-11.06 0.26,-15.99z" fill="#1A1923" id="svg_3" transform="translate(17 -174) scale(0.836773 0.836773)"/>
  <path d="m640,704.02l15.92,-0.05q-0.15,8.03 -0.04,16.07l-15.89,-0.05l0.01,-15.97z" fill="#302F50" id="svg_4" transform="translate(17 -174) scale(0.836773 0.836773)"/>
  <path d="m447.96,767.91q7.86,0.13 15.71,0.12c0.97,4.87 0.33,10.95 0.32,15.94c-5.3,-0.17 -10.63,-0.08 -15.93,-0.1l-0.1,-15.96z" fill="#202034" id="svg_5" transform="translate(17 -174) scale(0.836773 0.836773)"/>
  <path d="m592.01,751.98l16.07,-0.02q-0.1,8.03 -0.09,16.06c-5.02,-0.07 -10.95,0.38 -15.86,-0.4c-0.49,-5.11 -0.14,-10.49 -0.12,-15.64z" fill="#9182A1" id="svg_6" transform="translate(17 -174) scale(0.836773 0.836773)"/>
  <path d="m624.02,719.98l15.97,0.01l-0.04,16.03l-15.82,-0.05l-0.12,-0.31l0.01,-15.68z" fill="#302F50" id="svg_7" transform="translate(17 -174) scale(0.836773 0.836773)"/>
  <path d="m624.01,735.66l0.12,0.31q-0.17,8.02 -0.18,16.03l-15.87,-0.04l-0.07,-15.95c5.24,0.01 10.84,0.47 16,-0.35z" fill="#3B3664" id="svg_8" transform="translate(17 -174) scale(0.836773 0.836773)"/>
  <path d="m608.02,720.25c4.8,-0.9 11.05,-0.26 16,-0.27l-0.01,15.68c-5.16,0.82 -10.76,0.36 -16,0.35l0.01,-15.76z" fill="#5B5577" id="svg_9" transform="translate(17 -174) scale(0.836773 0.836773)"/>
  <path d="m207.97,735.89q8.02,0.22 16.04,0.11c0,5.28 -0.19,10.64 0.07,15.91l-0.09,0.32c-4.77,-0.91 -11.14,-0.46 -15.94,0.16c0.04,-5.5 -0.05,-11 -0.08,-16.5z" fill="#3B3664" id="svg_10" transform="translate(17 -174) scale(0.836773 0.836773)"/>
  <path d="m208.07,720l15.86,0q0.1,8 0.08,16q-8.02,0.11 -16.04,-0.11l0.02,-15.58l0.08,-0.31z" fill="#695F82" id="svg_11" transform="translate(17 -174) scale(0.836773 0.836773)"/>
  <path d="m591.97,736.01l16.04,0l0.07,15.95l-16.07,0.02c-0.04,-5.32 -0.15,-10.65 -0.04,-15.97z" fill="#593C81" id="svg_12" transform="translate(17 -174) scale(0.836773 0.836773)"/>
  <path d="m671.95,671.97l16.07,0.05l0,15.87c-5.47,0.16 -10.97,0.13 -16.44,0.18l-0.74,-0.17l0.85,-0.59c1.01,-4.66 0.29,-10.55 0.26,-15.34z" fill="#5B5577" id="svg_13" transform="translate(17 -174) scale(0.836773 0.836773)"/>
  <path d="m192.22,690.52c1.16,9.6 0.11,19.83 0.28,29.5c4.69,-0.04 10.99,-0.86 15.49,0.29l-0.02,15.58q-7.91,-0.1 -15.82,0.03c-0.32,-8.03 -0.11,-16.14 -0.12,-24.18c-0.01,-7.02 -0.33,-14.23 0.19,-21.22z" fill="#1A1923" id="svg_14" transform="translate(17 -174) scale(0.836773 0.836773)"/>
  <path d="m408.58,613.75c-0.04,-13.75 -0.83,-28.05 0.27,-41.74c0.18,13.91 -0.27,27.88 0.09,41.78l0.03,16l-15.72,-0.05c-0.02,2.33 0.13,4.81 -0.18,7.12c-0.38,-7.67 0.03,-15.45 -0.14,-23.14c5.17,0.26 10.47,0.04 15.65,0.03z" fill="#1A1923" id="svg_15" transform="matrix(1 0 0 1 0 0) matrix(0.836773 0 0 0.836773 0 0)"/>
  <path d="m543.68,490.08c0.67,11.39 -0.04,22.83 0.32,34.23l0.04,12.5l-14.92,-0.03c-0.06,4.04 0.09,8.2 -0.22,12.23c-0.86,-8.12 -0.15,-16.71 -0.15,-24.9c4.87,0.38 9.91,0.16 14.8,0.13c-0.02,-11.32 -0.67,-22.87 0.14,-34.16z" fill="#202034" id="svg_16"/>
  <path d="m191.77,687.99l16.16,0.05l0.11,0.29c-0.01,5.23 -0.08,10.47 -0.03,15.7c0,5.28 -0.23,10.7 0.06,15.97l-0.08,0.31c-4.5,-1.15 -10.8,-0.33 -15.49,-0.29c-0.17,-9.67 0.88,-19.9 -0.28,-29.5l-0.45,-2.53z" fill="#3B3664" id="svg_17" transform="translate(17 -174) scale(0.836773 0.836773)"/>
  <path d="m211.27,536.35q13.04,2.96 26.04,6.1l-3.03,12.95l-26.08,-6.16l3.07,-12.89z" fill="#593C81" id="svg_18"/>
  <path d="m160.08,687.96c0.29,-16.01 -0.4,-32.03 0.14,-48.04c1.17,10.54 -0.03,21.47 0.3,32.07l15.38,0l16.13,0.01c-0.02,5.27 0.26,10.75 -0.26,15.99l-31.69,-0.03z" fill="#593C81" id="svg_19" transform="translate(17 -174) scale(0.836773 0.836773)"/>
  <path d="m221.82,522.39c4.13,-0.03 8.71,-0.47 12.77,0.18c0.28,0.8 0.28,1.45 0.27,2.29l0.27,0.38l-0.01,2.39c-0.92,11.46 -0.26,23.42 -0.23,34.93c-4.33,0.01 -8.77,0.19 -13.1,-0.03l0.03,-40.15z" fill="#593C81" id="svg_20"/>
  <path d="m406.55,622.15c5.31,-0.04 10.72,0.13 16,-0.53c-0.43,10.76 -0.38,21.73 -0.13,32.51l-31.9,-0.01l0.16,-8.9c0.31,-2.31 0.16,-4.79 0.18,-7.12l15.72,0.05l-0.03,-16z" fill="#593C81" id="svg_21" transform="matrix(1 0 0 1 0 0) matrix(0.836773 0 0 0.836773 0 0)"/>
  <path d="m542.31,517.81c5.18,-0.33 10.36,-0.73 15.55,-0.62q-0.25,17.06 -0.11,34.12c-10.23,-0.29 -20.45,-0.07 -30.68,-0.17c-0.02,-2.13 -0.16,-4.34 -0.01,-6.45c0.48,-3.29 0.33,-6.82 0.36,-10.16l14.95,0.03l-0.07,-16.75z" fill="#593C81" id="svg_22" transform="matrix(1 0 0 1 0 0)"/>
  <path d="m479,525.63q6.74,-0.15 13.49,-0.37l-0.03,26.99c-3.4,0.03 -25.17,0.72 -26.63,-0.24c0.27,-4.31 0.14,-8.74 0.19,-13.06l13,0.03l-0.03,-13.35z" fill="#593C81" id="svg_23" transform="rotate(7.08648 479.161 538.883)"/>
  <path d="m608.02,688.01c5.27,0.02 10.59,-0.12 15.86,0.05l0.12,0.28l0.01,15.69l15.99,-0.01l-0.01,15.97l-15.97,-0.01c-4.95,0.01 -11.2,-0.63 -16,0.27l-0.08,-0.34c0.19,-5.28 0.07,-10.62 0.09,-15.91l-0.01,-15.99z" fill="#695F82" id="svg_24" transform="translate(17 -174) scale(0.836773 0.836773)"/>
  <path d="m719.68,655.96l0.43,0.12c0.42,10.61 -0.35,21.24 -0.12,31.86q-15.99,-0.14 -31.97,-0.05l0,-15.87l15.94,-0.01l0.05,-16.03l15.67,-0.02z" fill="#1A1923" id="svg_25" transform="translate(17 -174) scale(0.836773 0.836773)"/>
  <path d="m607.94,719.91l0.08,0.34l-0.01,15.76l-16.04,0l-15.97,0l-15.93,0c-0.18,-5.32 -0.04,-10.69 -0.05,-16.02l16,0l16,-0.02c5.3,0.03 10.62,0.18 15.92,-0.06z" fill="#9182A1" id="svg_26" transform="translate(17 -174) scale(0.836773 0.836773)"/>
  <path d="m560.02,719.99l16,0l-0.02,16.02l-15.93,0c-0.18,-5.32 -0.04,-10.69 -0.05,-16.02z" fill="#695F82" id="svg_27" transform="translate(17 -174) scale(0.836773 0.836773)"/>
  <path d="m607.94,719.91l0.08,0.34l-0.01,15.76l-16.04,0l0.05,-16.04c5.3,0.03 10.62,0.18 15.92,-0.06z" fill="#998F9E" id="svg_28" transform="translate(17 -174) scale(0.836773 0.836773)"/>
  <path d="m790.4,473.75c-0.02,5.32 -0.12,10.65 -0.05,15.97l-15.96,0.02q-8.03,0.09 -16.06,-0.12q-15.79,0.14 -31.59,-0.03l-0.14,-15.54c10.04,-1.43 21.52,0.01 31.73,-0.09c5.32,-0.4 10.69,-0.22 16.02,-0.19l16.05,-0.02z" fill="#1A1923" id="svg_30" transform="matrix(0.824065 0.14528 -0.14528 0.824065 79.2789 -105.796)"/>
  <path d="m399.98,752.01l16.01,0l16.01,-0.01l16,-0.01l-0.04,15.92c-7.77,-0.59 -15.86,-0.15 -23.67,-0.12l-40.21,0.13c-0.11,-5.29 -0.04,-10.6 -0.05,-15.89l15.95,-0.02z" fill="#202034" id="svg_31" transform="translate(17 -174) scale(0.836773 0.836773)"/>
  <path d="m560.07,736.01l15.93,0l15.97,0c-0.11,5.32 0,10.65 0.04,15.97c-0.02,5.15 -0.37,10.53 0.12,15.64l-0.17,0.21q-7.98,0.23 -15.97,0.19l-15.98,-0.02l0.01,-16c-0.13,-5.32 0.02,-10.67 0.05,-15.99z" fill="#593C81" id="svg_32" transform="translate(17 -174) scale(0.836773 0.836773)"/>
  <path d="m560.07,736.01l15.93,0l-0.01,16.01l-15.97,-0.02c-0.13,-5.32 0.02,-10.67 0.05,-15.99z" fill="#998F9E" id="svg_33" transform="translate(17 -174) scale(0.836773 0.836773)"/>
  <path d="m575.99,752.02l16.02,-0.04c-0.02,5.15 -0.37,10.53 0.12,15.64l-0.17,0.21q-7.98,0.23 -15.97,0.19l-15.98,-0.02l0.01,-16l15.97,0.02z" fill="#302F50" id="svg_34" transform="translate(17 -174) scale(0.836773 0.836773)"/>
  <path d="m671.95,671.97c0.03,4.79 0.75,10.68 -0.26,15.34l-0.85,0.59q-7.41,0.14 -14.82,0.09c-0.02,5.29 0.19,10.7 -0.1,15.98l-15.92,0.05l-15.99,0.01l-0.01,-15.69l-0.12,-0.28c0.46,-5.21 0.13,-10.67 0.13,-15.91c5.18,-0.44 10.75,-0.09 15.97,-0.09l16.01,-0.06l15.96,-0.03z" fill="#695F82" id="svg_35" transform="translate(17 -174) scale(0.836773 0.836773)"/>
  <path d="m624,688.34c4.92,-0.96 10.98,-0.35 16.01,-0.34l-0.01,16.02l-15.99,0.01l-0.01,-15.69z" fill="#3B3664" id="svg_36" transform="translate(17 -174) scale(0.836773 0.836773)"/>
  <path d="m719.89,358.02l32.14,0.05l-0.01,47.94c-5.34,0.01 -10.76,0.19 -16.09,-0.02l-0.27,0.1c-5.2,-0.16 -10.44,-0.04 -15.65,-0.05l-0.01,-16l0.03,-15.99c0.07,-5.3 0.27,-10.74 -0.14,-16.03z" fill="#D3C9C9" id="svg_37" transform="matrix(1 0 0 1 0 0) matrix(0.836773 0 0 0.836773 0 0)"/>
  <path d="m720,592.01l15.99,-0.03l-0.06,15.98l-0.27,0.1c-5.2,-0.16 -10.44,-0.04 -15.65,-0.05l-0.01,-16z" fill="#9182A1" id="svg_38" transform="translate(17 -174) scale(0.836773 0.836773)"/>
  <path d="m687.98,623.73c5.11,0.77 10.87,0.27 16.05,0.28l-0.03,16.64l0.01,15.33l-0.05,16.03l-15.94,0.01l-16.07,-0.05c0.14,-5.32 0.04,-10.68 0.05,-16l0,-15.91l-0.01,-16.05c5.3,-0.02 10.62,0.09 15.91,-0.06l0.08,-0.22z" fill="#202034" id="svg_39" transform="translate(17 -174) scale(0.836773 0.836773)"/>
  <path d="m671.99,624.01c5.3,-0.02 10.62,0.09 15.91,-0.06q0.16,8.03 0.12,16.06c-5.32,0 -10.7,-0.15 -16.02,0.05l-0.01,-16.05z" fill="#302F50" id="svg_40" transform="translate(17 -174) scale(0.836773 0.836773)"/>
  <path d="m672,640.06c5.32,-0.2 10.7,-0.05 16.02,-0.05l0,32.01l-16.07,-0.05c0.14,-5.32 0.04,-10.68 0.05,-16l0,-15.91z" fill="#1A1923" id="svg_41" transform="translate(17 -174) scale(0.836773 0.836773)"/>
  <path d="m658.04,355.21c26.4,0.54 53.1,0.68 79.5,0.02c0,5.29 -0.21,10.68 0.28,15.94c0.41,5.29 0.21,10.73 0.14,16.03l-16.04,-0.02l-0.01,-16.09l-32.09,-0.03l-0.02,16.01l-15.76,-0.01l0,-15.99q-8.01,0.13 -16.03,0.01q-0.05,-7.94 0.03,-15.87z" fill="#E6DFE5" id="svg_42" transform="matrix(0.836773 0 0 0.836773 0 0)"/>
  <path d="m470.6,457.64l13.37,0.02c0.03,4.13 0.69,9.38 -0.22,13.38l0.25,0.08l-0.11,40.21c4.54,-0.41 8.8,-0.28 13.33,-0.13q-0.02,6.74 0.1,13.48l0.06,13.31l-13.01,-0.03c-0.03,2.65 0.11,5.46 -0.31,8.07c-0.27,-7.15 0.01,-14.41 0.03,-21.58l-13.51,0.02c0.25,-13.37 0.07,-26.77 0.07,-40.15q-6.73,0.09 -13.46,-0.03q-0.09,-13.2 0.09,-26.41c4.36,-0.52 8.91,-0.26 13.31,-0.25z" fill="#1A1923" id="svg_43" transform="matrix(1 0 0 1 0 0) rotate(17.6623 477.276 501.804)"/>
  <path d="m560.01,768l15.98,0.02c0.04,4.93 0.82,11.21 -0.26,15.99l-15.73,0.02l0.01,-16.03z" fill="#695F82" id="svg_44" transform="translate(17 -174) scale(0.836773 0.836773)"/>
  <path d="m224.88,459.5q6.31,1.47 12.65,2.78l0.36,-0.03l13.13,2.79c-0.91,4.34 -1.99,8.74 -2.7,13.11l-5.47,26.19l-0.7,2.75l-0.18,-0.43c0.18,-0.83 0.32,-1.45 0.21,-2.3c-3.84,-1.46 -8.42,-1.96 -12.46,-2.78l-8.22,39.3l-13.02,-2.76l8.2,-39.38c-4.36,-0.97 -8.78,-1.8 -13.16,-2.68c3.07,-12.86 5.47,-25.96 8.17,-38.91c4.04,0.31 9.33,1.03 13.08,2.59l0.13,-0.25z" fill="#1A1923" id="svg_45"/>
  <path d="m201.43,539.02c6.75,0.01 13.63,-0.2 20.39,0.13l0,20.24l-20.36,0.01l-0.03,-20.38z" fill="#695F82" id="svg_46"/>
  <path d="m392.58,608.5q7.74,0.18 15.48,0.16c1.35,4.56 0.49,11.11 0.44,15.93l-0.01,16.07c-5.3,-0.26 -10.7,-0.09 -16,-0.1l0,-31.74l0.09,-0.32z" fill="#5B5577" id="svg_47" transform="matrix(0.836773 0 0 0.836773 0 0)"/>
  <path d="m337.97,499.79l16.04,0.06c0,5.3 -0.19,10.71 0.04,16l-0.01,31.98l-0.15,3.39l-0.32,-0.46c0.01,-1.01 0.02,-1.78 -0.32,-2.74c-4.85,-0.77 -10.33,-0.24 -15.26,-0.21l0,-15.9l0.01,-16.07c0.05,-4.82 0.91,-11.37 -0.44,-15.93l0.41,-0.12z" fill="#3B3664" id="svg_48" transform="matrix(1 0 0 1 0 0) matrix(0.836773 0 0 0.836773 0 0)"/>
  <path d="m239.97,751.95l16.04,0.06c0,5.3 -0.19,10.71 0.04,16l-16.05,-0.01c0.05,-4.82 0.91,-11.37 -0.44,-15.93l0.41,-0.12z" fill="#695F82" id="svg_49" transform="translate(17 -174) scale(0.836773 0.836773)"/>
  <path d="m772.34,397.65l-0.11,32.1l16.1,-0.08c-0.01,5.28 0.03,10.58 -0.04,15.87l16.03,-0.14c0,5.41 -0.13,10.86 0.09,16.26q-0.09,8 -0.05,16.01l-16.05,0.02c-5.33,-0.03 -10.7,-0.21 -16.02,0.19c-10.21,0.1 -21.69,-1.34 -31.73,0.09l-0.25,-0.36c-0.23,-10.62 0.54,-21.25 0.12,-31.86q7.95,-0.2 15.9,-0.12c-0.06,-5.33 0.01,-10.67 0.02,-16c0.03,-8.05 1.08,-24.95 -0.37,-31.9l0.27,-0.1c5.33,0.21 10.75,0.03 16.09,0.02z" fill="#593C81" id="svg_50" transform="matrix(1 0 0 1 0 0) matrix(0.836773 0 0 0.836773 0 0)"/>
  <path d="m768,671.96l16.09,0.03q-0.09,8 -0.05,16.01l-16.05,0.02l0.01,-16.06z" fill="#998F9E" id="svg_51" transform="translate(17 -174) scale(0.836773 0.836773)"/>
  <path d="m752.02,671.93c5.32,0.01 10.66,0.11 15.98,0.03l-0.01,16.06c-5.33,-0.03 -10.7,-0.21 -16.02,0.19l0.05,-16.28z" fill="#3B3664" id="svg_52" transform="translate(17 -174) scale(0.836773 0.836773)"/>
  <path d="m740.43,448.14q7.95,-0.2 15.9,-0.12l0,16.08c5.32,-0.03 10.69,0.09 16.01,-0.11l-0.05,16.28c-10.21,0.1 -21.69,-1.34 -31.73,0.09l-0.25,-0.36c-0.23,-10.62 0.54,-21.25 0.12,-31.86z" fill="#202034" id="svg_53" transform="matrix(1 0 0 1 0 0) rotate(10.743 632.851 388.411) matrix(0.836773 0 0 0.836773 0 0)"/>
  <path d="m724.31,368.06l16.04,0.02l-0.03,15.99l0.01,16c5.21,0.01 10.45,-0.11 15.65,0.05c1.45,6.95 0.4,23.85 0.37,31.9c-0.01,5.33 -0.08,10.67 -0.02,16q-7.95,-0.08 -15.9,0.12l-0.43,-0.12l-15.67,0.02l-0.01,-15.33l0.03,-16.64c-5.18,-0.01 -10.94,0.49 -16.05,-0.28l0.02,-15.77l-16.02,0.03c0.15,-5.3 0.48,-10.71 0.01,-16l0,-15.99l14.41,-0.01l17.59,0.01z" fill="#302F50" id="svg_54" transform="matrix(1 0 0 1 0 0) matrix(0.836773 0 0 0.836773 0 0)"/>
  <path d="m704,640.65c4.09,-1.63 11.5,-0.65 16,-0.7c0.05,4.74 0.96,11.51 -0.32,16.01l-15.67,0.02l-0.01,-15.33z" fill="#3B3664" id="svg_55" transform="translate(17 -174) scale(0.836773 0.836773)"/>
  <path d="m703.99,576l16.04,0.02l-0.03,15.99l-16,0l-0.01,-16.01z" fill="#998F9E" id="svg_56" transform="translate(17 -174) scale(0.836773 0.836773)"/>
  <path d="m679.63,380.9l16.01,0.05l0.02,16c-5.18,-0.01 -10.94,0.49 -16.05,-0.28l0.02,-15.77z" fill="#D3C9C9" id="svg_57" transform="matrix(0.836773 0 0 0.836773 0 0)"/>
  <path d="m509.03,445.3l12.47,-4.39c4.09,-1.45 8.3,-3.3 12.52,-4.3c1.43,4.85 3.09,9.62 4.71,14.4l12.55,-4.45l4.65,14.49l-12.45,4.3l4.77,14.64c-2.53,0.85 -11.19,3.01 -12.66,4.82l1.18,3.61c3.61,13.27 8.52,26.42 12.83,39.49c-3.96,1.43 -7.98,3.13 -12.08,4.08c-4.15,1.11 -8.57,2.55 -12.37,4.59c-6.48,-19.26 -12.34,-38.78 -19.12,-57.93l12.48,-4.36l-4.71,-14.51l-4.76,-14.48z" fill="#1A1923" id="svg_58"/>
  <path d="m466.13,494.6c3.82,-0.14 9.45,-1.08 13.05,-0.04l0.08,3.42c-0.39,12.36 0.5,24.98 0.84,37.36c-4.26,0.14 -8.64,0.51 -12.89,0.2l-1.07,-40.95z" fill="#3B3664" id="svg_59" transform="matrix(1 0 0 1 0 0) rotate(19.7582 473.113 514.877)"/>
  <path d="m502.73,552.42l15.98,0c5.25,-0.01 10.78,-0.37 16,0.11c-0.19,5.3 -0.08,10.61 -0.02,15.91l0.01,15.96l-16.01,0.03l-16.01,0l0.06,-16.01l-0.01,-16z" fill="#695F82" id="svg_60" transform="matrix(1 0 0 1 0 0) matrix(0.836773 0 0 0.836773 0 0)"/>
  <path d="m516.32,560.07l15.98,0.01l0.01,15.96l-16.01,0.03l0.02,-16z" fill="#C2B3AD" id="svg_61" transform="matrix(0.836773 0 0 0.836773 0 0)"/>
  <path d="m326.43,480.28l9.27,7.21c3.08,2.37 6.28,4.61 9.28,7.23l-4.53,13.95c-6.39,-3.97 -12.41,-9.45 -18.65,-13.97c-3.31,9.46 -6.19,19.28 -9.33,28.88l9.34,7.14l-4.61,14.56q-9.22,-7.31 -18.5,-14.43l4.68,-14.61q-4.58,-3.66 -9.23,-7.1c1.51,-4.86 3.08,-9.67 4.63,-14.49c-6.29,-4.49 -12.4,-9.65 -18.63,-14.31l9.24,-28.87l9.23,7.19l9.25,7.18l18.57,14.42z" fill="#000000" id="svg_62" transform="matrix(0.949869 -0.312648 0.312648 0.949869 -135.832 105.762)"/>
  <path d="m257.85,258.74c5.63,0.88 11.66,0.49 17.35,0.49l27.31,-0.01c29.55,-0.03 59.17,0.35 88.71,-0.34l0.03,13.47c8.79,0.08 17.57,0.29 26.36,-0.11c-0.01,4.43 -0.18,8.91 0.21,13.33l13.61,-0.02l70.63,0.1c12.03,0.01 24.57,0.75 36.53,-0.15q6.71,0.1 13.41,-0.01l0,13.38l13.19,0.01l0.02,-13.4l26.85,0.03l0.01,13.46l-14.72,-0.01l-12.06,0.01l0,13.38c0.39,4.43 0.12,8.95 -0.01,13.39l13.41,-0.03l-0.02,13.2l-0.07,0.18c-4.43,0.13 -8.88,0.03 -13.31,0.05l0.01,13.43l0,13.31c-0.01,4.45 0.08,8.94 -0.04,13.39l-13.35,0.03l-13.4,0.05c-4.37,0 -9.03,-0.29 -13.36,0.08c0,4.38 0.28,8.95 -0.11,13.31c-4.41,-0.14 -8.86,-0.03 -13.27,-0.04l0.01,13.38c-0.02,4.43 0.08,8.89 -0.08,13.31c-4.43,0.2 -8.89,0.08 -13.32,0.05l-13.39,0.02l-13.39,0c0.01,4.46 -0.11,8.95 0.04,13.41c-0.03,4.45 -0.15,8.93 -0.04,13.38l-0.01,13.39c-4.4,-0.01 -8.95,-0.27 -13.31,0.25l-0.09,-0.3l-13.32,0.04l-13.46,0.03c-0.05,-4.43 -0.14,-8.88 0.02,-13.31c-4.37,-0.4 -9,-0.1 -13.39,-0.09l-13.37,0l0.01,13.39l-0.05,13.4l-13.37,-0.03c0.01,-4.18 0.54,-9.26 -0.27,-13.34q-6.57,0.01 -13.15,-0.1l0.03,-13.32l-13.39,0.01l-13.4,0.01l-13.4,0l-13.35,0.02c0.01,4.43 -0.05,8.87 0.04,13.3l-13.42,0.11c-4.43,-0.18 -8.94,-0.02 -13.37,-0.01c-4.43,-0.22 -8.97,-0.03 -13.41,-0.02l-13.4,-0.01l-26.83,0.01l-13.36,0.01l-13.34,-0.02c-0.19,-4.43 -0.03,-8.95 -0.03,-13.39l-13.42,-0.05l-0.34,0.1q-6.48,0.02 -12.95,-0.13c-0.22,-4.41 -0.06,-8.89 -0.06,-13.31q0.02,-6.69 -0.07,-13.39l-13.27,0c-0.24,-4.41 -0.05,-8.95 -0.05,-13.36c-0.04,-4.38 0.02,-8.76 0.03,-13.14l-0.09,-0.24l-13.52,-0.04c0.44,-4.38 0.2,-8.97 0.22,-13.38l-13.5,-0.01l-12.87,0c-0.28,-8.87 0.73,-18.02 -0.25,-26.84c4.41,-0.15 8.85,-0.05 13.26,-0.05c0.09,-4.43 0.28,-8.88 0.09,-13.3c4.44,-0.09 9.15,-0.23 13.56,0.33c-0.2,-4.54 -0.04,-9.15 -0.03,-13.71c4.44,0.4 8.91,0.35 13.36,0.38c-0.66,-8.95 0.08,-18.16 -0.07,-27.14q8.84,-0.11 17.68,0.07c2.98,-0.03 5.97,-0.11 8.95,-0.01c1.01,-2.05 0.34,-10.76 0.35,-13.49c13.41,0.3 26.85,-0.18 40.27,0.18c-0.23,-4.47 -0.06,-9.05 -0.05,-13.53c4.43,-0.19 8.92,-0.01 13.36,0.04q-0.06,-6.74 0.04,-13.49z" fill="#D3C9C9" id="svg_63"/>
  <path d="m480.02,672.01l16.01,-0.02l-0.05,15.87l-15.81,-0.03c-0.38,-5.24 -0.17,-10.57 -0.15,-15.82z" fill="#E6DFE5" id="svg_64" transform="translate(17 -174) scale(0.836773 0.836773)"/>
  <path d="m229.36,576.07c3.56,-0.04 7.13,-0.13 10.69,-0.01c0.98,3.52 0.07,11.99 0,15.98l-15.99,0.03q-0.12,-7.66 0.15,-15.31c1.65,-0.06 3.75,0.17 5.15,-0.69z" fill="#E6DFE5" id="svg_65" transform="translate(17 -174) scale(0.836773 0.836773)"/>
  <path d="m223.99,655.93q8.01,0.2 16.02,0.08l-0.03,15.96l-15.98,-0.01l-0.01,-16.03z" fill="#E6DFE5" id="svg_66" transform="translate(17 -174) scale(0.836773 0.836773)"/>
  <path d="m383.99,656.02l16.02,-0.03l-0.01,16l-15.99,0.01l-0.02,-15.98z" fill="#9182A1" id="svg_67" transform="translate(17 -174) scale(0.836773 0.836773)"/>
  <path d="m480.02,656l15.99,-0.01l0.02,16l-16.01,0.02l0,-16.01z" fill="#998F9E" id="svg_68" transform="translate(17 -174) scale(0.836773 0.836773)"/>
  <path d="m256,640l16.01,-0.01l-0.01,16.01l-15.98,0.01l-0.02,-16.01z" fill="#9182A1" id="svg_69" transform="translate(17 -174) scale(0.836773 0.836773)"/>
  <path d="m368.01,703.91q8,0.13 16,0.09l0,15.99l-16,0l0,-16.08z" fill="#593C81" id="svg_70" transform="translate(17 -174) scale(0.836773 0.836773)"/>
  <path d="m303.98,656.01l16.02,-0.01l0.01,16l-16.04,0l0.01,-15.99z" fill="#998F9E" id="svg_71" transform="translate(17 -174) scale(0.836773 0.836773)"/>
  <path d="m255.99,720l16.02,-0.01l0,15.97q-8,0.14 -15.99,-0.04l-0.03,-15.92z" fill="#593C81" id="svg_72" transform="translate(17 -174) scale(0.836773 0.836773)"/>
  <path d="m384,688.01l16.02,-0.01l0,16l-16.01,0l-0.01,-15.99z" fill="#695F82" id="svg_73" transform="translate(17 -174) scale(0.836773 0.836773)"/>
  <path d="m303.97,672l16.04,0l0,16.03c-5.32,-0.12 -10.66,-0.05 -15.98,-0.06l-0.06,-15.97z" fill="#E6DFE5" id="svg_74" transform="translate(17 -174) scale(0.836773 0.836773)"/>
  <path d="m271.98,672l16.03,-0.02l0,16.02l-16.01,0.01l-0.02,-16.01z" fill="#9182A1" id="svg_75" transform="translate(17 -174) scale(0.836773 0.836773)"/>
  <path d="m560,656.01l16.02,-0.02l-0.02,16.01l-16.01,0.02l0.01,-16.01z" fill="#593C81" id="svg_76" transform="translate(17 -174) scale(0.836773 0.836773)"/>
  <path d="m480.02,672.01c-0.02,5.25 -0.23,10.58 0.15,15.82l-0.15,0.36c-4.74,-0.69 -11.26,-0.56 -16.01,0.04l-0.09,-0.32c0.2,-5.28 0.07,-10.64 0.08,-15.93c5.29,0.27 10.72,0.04 16.02,0.03z" fill="#998F9E" id="svg_77" transform="translate(17 -174) scale(0.836773 0.836773)"/>
  <path d="m223.94,624.02l16.07,-0.02l-0.01,16l-16.02,0.01l-0.04,-15.99z" fill="#998F9E" id="svg_78" transform="translate(17 -174) scale(0.836773 0.836773)"/>
  <path d="m335.98,639.99l16.03,0.01l-0.01,16l-16,0l-0.02,-16.01z" fill="#E6DFE5" id="svg_79" transform="translate(17 -174) scale(0.836773 0.836773)"/>
  <path d="m624,591.99l15.99,0l0.01,16.11q-8,-0.19 -16,-0.03l0,-16.08z" fill="#3B3664" id="svg_80" transform="translate(17 -174) scale(0.836773 0.836773)"/>
  <path d="m543.98,624l16.04,-0.02l-0.01,16.03l-16,0l-0.03,-16.01z" fill="#998F9E" id="svg_82" transform="translate(17 -174) scale(0.836773 0.836773)"/>
  <path d="m591.99,655.98l16.01,0l0,16.01l-15.98,0l-0.03,-16.01z" fill="#593C81" id="svg_83" transform="translate(17 -174) scale(0.836773 0.836773)"/>
  <path d="m528.01,656.01l16.02,-0.03l-0.01,16.04c-5.31,-0.01 -10.71,0.17 -16.02,-0.04l0.01,-15.97z" fill="#9182A1" id="svg_84" transform="translate(17 -174) scale(0.836773 0.836773)"/>
  <path d="m500.32,528.06l16.01,0l-0.01,16l-15.98,0l-0.02,-16z" fill="#D3C9C9" id="svg_85" transform="matrix(1 0 0 1 0 0) matrix(0.836773 0 0 0.836773 0 0)"/>
  <path d="m575.97,624.01l16.06,-0.02l-0.01,16.02l-16.02,0.01l-0.03,-16.01z" fill="#9182A1" id="svg_86" transform="translate(17 -174) scale(0.836773 0.836773)"/>
  <path d="m495.74,559.98l16.27,-0.02l-0.03,16.03l-15.96,0.01c0,-5.18 0.47,-10.91 -0.28,-16.02z" fill="#9182A1" id="svg_87" transform="translate(17 -174) scale(0.836773 0.836773)"/>
  <path d="m224.31,687.95l15.72,0.03l-0.01,16.05l-16,-0.02c-0.03,-5.09 -0.62,-11.08 0.29,-16.06z" fill="#9182A1" id="svg_88" transform="translate(17 -174) scale(0.836773 0.836773)"/>
  <path d="m384.01,704l16.01,0l-0.02,16l-15.99,-0.01l0,-15.99z" fill="#D3C9C9" id="svg_89" transform="translate(17 -174) scale(0.836773 0.836773)"/>
  <path d="m208.01,704.03l16.01,-0.02l0.01,15.67l-0.1,0.32l-15.86,0c-0.29,-5.27 -0.06,-10.69 -0.06,-15.97z" fill="#998F9E" id="svg_90" transform="translate(17 -174) scale(0.836773 0.836773)"/>
  <path d="m607.98,623.99l16.03,0l-0.01,16.01l-16,0.03l-0.02,-16.04z" fill="#9182A1" id="svg_91" transform="translate(17 -174) scale(0.836773 0.836773)"/>
  <path d="m191.96,639.97l16.07,-0.02c0,5.27 -0.25,10.65 0.12,15.9l-0.15,0.35c-4.71,-0.73 -11.27,-0.55 -16.01,0.02l-0.09,-0.32q0.09,-7.97 0.06,-15.93z" fill="#9182A1" id="svg_92" transform="translate(17 -174) scale(0.836773 0.836773)"/>
  <path d="m415.94,559.99q8.04,0.06 16.07,-0.12l-0.03,16.26c-5.29,-0.29 -10.72,-0.08 -16.02,-0.08l-0.02,-16.06z" fill="#E6DFE5" id="svg_93" transform="translate(17 -174) scale(0.836773 0.836773)"/>
  <path d="m432.23,434.7l16.08,-0.01l-0.02,16.06l-16.06,0.02l0,-16.07z" fill="#E6DFE5" id="svg_94" transform="matrix(1 0 0 1 0 0) matrix(0.836773 0 0 0.836773 0 0)"/>
  <path d="m367.96,559.97l16.08,0.02l0,16.04l-16.08,0.01l0,-16.07z" fill="#E6DFE5" id="svg_95" transform="matrix(1 0 0 1 0 0) translate(17 -174) scale(0.836773 0.836773)"/>
  <path d="m300.84,586.27l16.09,-0.01l-0.01,16.06l-16.07,0.01l-0.01,-16.06z" fill="#E6DFE5" id="svg_96" transform="translate(17 -174) matrix(0.836773 0 0 0.836773 0 0)"/>
  <path d="m191.9,655.9l0.09,0.32l0.04,15.78l-16.13,-0.01l-0.03,-16.01l16.03,-0.08z" fill="#998F9E" id="svg_97" transform="translate(17 -174) scale(0.836773 0.836773)"/>
  <path d="m255.94,575.98l16.09,-0.01c0.03,5.33 0.18,10.7 -0.03,16.04l-15.96,0q-0.24,-8.01 -0.1,-16.03z" fill="#E6DFE5" id="svg_98" transform="translate(17 -174) scale(0.836773 0.836773)"/>
  <path d="m432.01,559.87l16.08,0.05c0.01,5.38 0.09,10.77 -0.02,16.15c-5.28,0.04 -10.83,0.41 -16.09,0.06l0.03,-16.26z" fill="#E6DFE5" id="svg_99" transform="translate(17 -174) scale(0.836773 0.836773)"/>
  <path d="m320.01,672l16,0l0.01,31.99l-16.01,0l0,-15.96l0,-16.03z" fill="#9182A1" id="svg_100" transform="translate(17 -174) scale(0.836773 0.836773)"/>
  <path d="m527.98,592l16.01,0.01l-0.02,31.99l-15.98,0.01l-0.01,-32.01z" fill="#E6DFE5" id="svg_101" transform="translate(17 -174) scale(0.836773 0.836773)"/>
  <path d="m464.01,688.23c4.75,-0.6 11.27,-0.73 16.01,-0.04l0.01,31.8l-16.04,0.02l0.06,-16.01l-0.04,-15.77z" fill="#695F82" id="svg_102" transform="translate(17 -174) scale(0.836773 0.836773)"/>
  <path d="m512.01,735.99l16,0.01c-0.01,5.25 0.27,10.72 -0.09,15.94c-5.19,0.16 -10.43,0.04 -15.62,0.06l-0.3,0.11c-5.22,-0.48 -10.75,-0.12 -16,-0.11l0.01,-16l16,-0.01z" fill="#C2B3AD" id="svg_103" transform="translate(17 -174) scale(0.836773 0.836773)"/>
  <path d="m496.01,736l16,-0.01c-0.04,4.88 -0.86,11.31 0.29,16.01l-0.3,0.11c-5.22,-0.48 -10.75,-0.12 -16,-0.11l0.01,-16z" fill="#9182A1" id="svg_104" transform="translate(17 -174) scale(0.836773 0.836773)"/>
  <path d="m511.97,639.99l16.05,0.01l-0.01,16.01l-0.01,15.97l-15.97,0.01l-0.06,-32z" fill="#E6DFE5" id="svg_105" transform="translate(17 -174) scale(0.836773 0.836773)"/>
  <path d="m320.01,703.99l16.01,0c5.29,-0.02 10.75,0.22 16.02,-0.11c-0.07,4.83 -0.96,11.5 0.3,16.1l-0.32,0.1c-5.35,-0.15 -10.69,-0.06 -16.04,0l-0.31,-0.09l-15.66,0.01l0,-16.01z" fill="#C2B3AD" id="svg_106" transform="translate(17 -174) scale(0.836773 0.836773)"/>
  <path d="m320.01,703.99l16.01,0c0.03,4.83 0.87,11.37 -0.35,16l-15.66,0.01l0,-16.01z" fill="#D3C9C9" id="svg_107" transform="translate(17 -174) scale(0.836773 0.836773)"/>
  <path d="m543.96,687.99l16.08,-0.04l-0.02,32.04l-16.01,-0.01l-0.05,-31.99z" fill="#998F9E" id="svg_108" transform="translate(17 -174) scale(0.836773 0.836773)"/>
  <path d="m353.9,381.64l16.07,0.01l-0.04,32.03l-16,0l-0.03,-32.04z" fill="#E6DFE5" id="svg_109" transform="matrix(0.836773 0 0 0.836773 0 0)"/>
  <path d="m431.98,672l32.02,-0.02c-0.01,5.29 0.12,10.65 -0.08,15.93c-10.61,0.35 -21.27,0.12 -31.88,0.09c-0.3,-5.3 -0.08,-10.69 -0.06,-16z" fill="#E6DFE5" id="svg_110" transform="translate(17 -174) scale(0.836773 0.836773)"/>
  <path d="m447.95,591.96l16.07,0.03l-0.02,32.02l-16.02,0.01l-0.03,-32.06z" fill="#E6DFE5" id="svg_111" transform="translate(17 -174) scale(0.836773 0.836773)"/>
  <path d="m671.99,591.99c0.47,5.29 0.14,10.7 -0.01,16q-7.98,-0.03 -15.96,0.08q-8.01,0.16 -16.02,0.03l-0.01,-16.11l15.94,0l16.06,0z" fill="#202034" id="svg_112" transform="translate(17 -174) scale(0.836773 0.836773)"/>
  <path d="m671.99,591.99c0.47,5.29 0.14,10.7 -0.01,16q-7.98,-0.03 -15.96,0.08l-0.09,-16.08l16.06,0z" fill="#3B3664" id="svg_113" transform="translate(17 -174) scale(0.836773 0.836773)"/>
  <path d="m559.99,576l31.99,0.01l0,15.98l-16.01,-0.01l0,16l-15.96,0.02l-0.02,-32z" fill="#E6DFE5" id="svg_114" transform="translate(17 -174) scale(0.836773 0.836773)"/>
  <path d="m246.98,412.09l26.79,-0.01l0,13.4c-0.01,4.43 0.22,9.04 -0.08,13.45c-4.42,-0.14 -8.88,-0.02 -13.29,-0.03l0.01,-13.46l-13.43,0.04l-0.01,-13.39z" fill="#998F9E" id="svg_115"/>
  <path d="m224.03,719.68c5.12,0.84 10.83,0.3 16.04,0.26c0,5.28 -0.21,10.65 0.09,15.92l15.86,0.06l-0.01,16.09l-16.04,-0.06l-0.41,0.12q-7.74,0.02 -15.48,-0.16c-0.26,-5.27 -0.07,-10.63 -0.07,-15.91q0.02,-8 -0.08,-16l0.1,-0.32z" fill="#998F9E" id="svg_116" transform="translate(17 -174) scale(0.836773 0.836773)"/>
  <path d="m224.01,736c5.24,-0.01 10.81,-0.43 16,0.2l-0.04,15.75l-0.41,0.12q-7.74,0.02 -15.48,-0.16c-0.26,-5.27 -0.07,-10.63 -0.07,-15.91z" fill="#695F82" id="svg_117" transform="translate(17 -174) scale(0.836773 0.836773)"/>
  <path d="m240.16,735.86l15.86,0.06l-0.01,16.09l-16.04,-0.06l0.04,-15.75l0.15,-0.34z" fill="#C2B3AD" id="svg_118" transform="translate(17 -174) scale(0.836773 0.836773)"/>
  <path d="m624,608.07q8,-0.16 16,0.03q8.01,0.13 16.02,-0.03q7.98,-0.11 15.96,-0.08l16.02,-0.03l-0.02,15.77l-0.08,0.22c-5.29,0.15 -10.61,0.04 -15.91,0.06l-16,-0.01l-15.53,0.01l-16.45,-0.02l-0.01,-15.92z" fill="#1A1923" id="svg_119" transform="translate(17 -174) scale(0.836773 0.836773)"/>
  <path d="m256.02,735.92q7.99,0.18 15.99,0.04l15.99,0.03l0.02,16.01l-0.06,16.02l-15.97,0.01l-15.94,-0.02c-0.23,-5.29 -0.04,-10.7 -0.04,-16l0.01,-16.09z" fill="#998F9E" id="svg_120" transform="translate(17 -174) scale(0.836773 0.836773)"/>
  <path d="m288.02,752l-0.06,16.02l-15.97,0.01l0.02,-16.02l16.01,-0.01z" fill="#593C81" id="svg_121" transform="translate(17 -174) scale(0.836773 0.836773)"/>
  <path d="m272.01,735.96l15.99,0.03l0.02,16.01l-16.01,0.01l0,-16.05z" fill="#C2B3AD" id="svg_122" transform="translate(17 -174) scale(0.836773 0.836773)"/>
  <path d="m208.15,655.85c5.26,0.02 10.6,-0.15 15.84,0.08l0.01,16.03c0,5.19 -0.33,10.59 0.13,15.74c-5.21,0.79 -11.07,-0.65 -16.09,0.63l-0.11,-0.29l-16.16,-0.05c0.52,-5.24 0.24,-10.72 0.26,-15.99l-0.04,-15.78c4.74,-0.57 11.3,-0.75 16.01,-0.02l0.15,-0.35z" fill="#C2B3AD" id="svg_123" transform="translate(17 -174) scale(0.836773 0.836773)"/>
  <path d="m191.99,656.22c4.74,-0.57 11.3,-0.75 16.01,-0.02c0,10.54 0.42,21.32 -0.07,31.84l-16.16,-0.05c0.52,-5.24 0.24,-10.72 0.26,-15.99l-0.04,-15.78z" fill="#695F82" id="svg_124" transform="translate(17 -174) scale(0.836773 0.836773)"/>
  <path d="m511.93,704.01l16.12,-0.02l-0.01,15.97l15.97,0.02l16.01,0.01c0.01,5.33 -0.13,10.7 0.05,16.02l-15.75,-0.04l-0.3,0.1c-5.31,-0.21 -10.7,-0.06 -16.01,-0.07l-16,-0.01l-0.03,-15.97l-0.05,-16.01z" fill="#998F9E" id="svg_125" transform="translate(17 -174) scale(0.836773 0.836773)"/>
  <path d="m511.98,720.02l16.04,-0.01l-0.01,15.99l-16,-0.01l-0.03,-15.97z" fill="#593C81" id="svg_126" transform="translate(17 -174) scale(0.836773 0.836773)"/>
  <path d="m544.01,719.98l16.01,0.01c0.01,5.33 -0.13,10.7 0.05,16.02l-15.75,-0.04c-1.21,-4.59 -0.35,-11.19 -0.31,-15.99z" fill="#D3C9C9" id="svg_127" transform="translate(17 -174) scale(0.836773 0.836773)"/>
  <path d="m608,640.03l16,-0.03l0.01,16l16.01,0.01l-0.04,16.05c-5.22,0 -10.79,-0.35 -15.97,0.09c0,5.24 0.33,10.7 -0.13,15.91c-5.27,-0.17 -10.59,-0.03 -15.86,-0.05l-16.01,-0.03l0.01,-15.99l15.98,0l0,-16.01l0,-15.95z" fill="#D3C9C9" id="svg_128" transform="translate(17 -174) scale(0.836773 0.836773)"/>
  <path d="m608,640.03l16,-0.03l0.01,16l-16.01,-0.02l0,-15.95z" fill="#593C81" id="svg_129" transform="translate(17 -174) scale(0.836773 0.836773)"/>
  <path d="m592.02,671.99l15.98,0l0.02,16.02l-16.01,-0.03l0.01,-15.99z" fill="#998F9E" id="svg_130" transform="translate(17 -174) scale(0.836773 0.836773)"/>
  <path d="m624.01,656l16.01,0.01l-0.04,16.05c-5.22,0 -10.79,-0.35 -15.97,0.09l0,-16.15z" fill="#695F82" id="svg_131" transform="translate(17 -174) scale(0.836773 0.836773)"/>
  <path d="m576,672l16.02,-0.01l-0.01,15.99l16.01,0.03l0.01,15.99c-0.02,5.29 0.1,10.63 -0.09,15.91c-5.3,0.24 -10.62,0.09 -15.92,0.06l-16,0.02l-0.02,-47.99z" fill="#695F82" id="svg_132" transform="translate(17 -174) scale(0.836773 0.836773)"/>
  <path d="m592.01,687.98l16.01,0.03l0.01,15.99c-0.02,5.29 0.1,10.63 -0.09,15.91c-5.3,0.24 -10.62,0.09 -15.92,0.06l-0.05,-15.97c-0.13,-5.33 0.01,-10.69 0.04,-16.02z" fill="#9182A1" id="svg_133" transform="translate(17 -174) scale(0.836773 0.836773)"/>
  <path d="m591.97,704l16.06,0c-0.02,5.29 0.1,10.63 -0.09,15.91c-5.3,0.24 -10.62,0.09 -15.92,0.06l-0.05,-15.97z" fill="#C2B3AD" id="svg_134" transform="translate(17 -174) scale(0.836773 0.836773)"/>
  <path d="m308.32,516.84l16.05,-0.05l-0.01,16.09c5.27,0.01 10.6,-0.14 15.88,0.03l0.12,0.26l-0.02,31.68l-32.06,0.01l0.06,-16.02l-0.02,-16.01l0,-15.99z" fill="#5B5577" id="svg_135" transform="matrix(0.836773 0 0 0.836773 0 0)"/>
  <path d="m544.32,735.97l15.75,0.04c-0.03,5.32 -0.18,10.67 -0.05,15.99l-0.01,16c-5.26,-0.01 -10.7,-0.32 -15.91,0.3l-0.11,-0.36l-15.92,0.05l-16.09,0.03c-0.06,-5.3 -0.17,-10.61 0.02,-15.91l0.3,-0.11c5.19,-0.02 10.43,0.1 15.62,-0.06c0.36,-5.22 0.08,-10.69 0.09,-15.94c5.31,0.01 10.7,-0.14 16.01,0.07l0.3,-0.1z" fill="#695F82" id="svg_136" transform="translate(17 -174) scale(0.836773 0.836773)"/>
  <path d="m528.23,752.01l15.77,-0.01l-0.01,15.94l-15.92,0.05c-0.07,-5.17 -0.53,-10.87 0.16,-15.98z" fill="#302F50" id="svg_137" transform="translate(17 -174) scale(0.836773 0.836773)"/>
  <path d="m544.32,735.97l15.75,0.04c-0.03,5.32 -0.18,10.67 -0.05,15.99l-16.03,-0.02l0.03,-15.91l0.3,-0.1z" fill="#9182A1" id="svg_138" transform="translate(17 -174) scale(0.836773 0.836773)"/>
  <path d="m527.92,751.94l0.31,0.07c-0.69,5.11 -0.23,10.81 -0.16,15.98l-16.09,0.03c-0.06,-5.3 -0.17,-10.61 0.02,-15.91l0.3,-0.11c5.19,-0.02 10.43,0.1 15.62,-0.06z" fill="#593C81" id="svg_139" transform="translate(17 -174) scale(0.836773 0.836773)"/>
  <path d="m624.01,623.99l16.45,0.02l15.53,-0.01l16,0.01l0.01,16.05l0,15.91c-0.01,5.32 0.09,10.68 -0.05,16l-15.96,0.03l-16.01,0.06l0.04,-16.05l-16.01,-0.01l-0.01,-16l0.01,-16.01z" fill="#998F9E" id="svg_140" transform="translate(17 -174) scale(0.836773 0.836773)"/>
  <path d="m672,655.97c-0.01,5.32 0.09,10.68 -0.05,16l-15.96,0.03c0.13,-5.33 0.01,-10.69 -0.01,-16.01q8.02,0.06 16.02,-0.02z" fill="#9182A1" id="svg_141" transform="translate(17 -174) scale(0.836773 0.836773)"/>
  <path d="m624.01,623.99l16.45,0.02l15.53,-0.01l0.02,16l-16.03,0.01l0.04,16l-16.01,-0.01l-0.01,-16l0.01,-16.01z" fill="#D3C9C9" id="svg_142" transform="translate(17 -174) scale(0.836773 0.836773)"/>
  <path d="m368.01,719.99l16,0l0.02,16.01c-0.03,5.27 -0.36,10.79 0,16.03c0.01,5.29 -0.06,10.6 0.05,15.89l-16.04,0.13c-5.29,-0.22 -10.68,-0.02 -15.98,-0.01c-5.3,-0.26 -10.72,-0.04 -16.03,-0.02l-16.01,-0.01l0.02,-31.68l-0.12,-0.26c0.35,-5.27 0.08,-10.78 0.09,-16.07l15.66,-0.01l0.31,0.09c5.35,-0.06 10.69,-0.15 16.04,0l0.32,-0.1l15.67,0.01z" fill="#695F82" id="svg_143" transform="translate(17 -174) scale(0.836773 0.836773)"/>
  <path d="m335.98,720.08c5.35,-0.06 10.69,-0.15 16.04,0q-0.07,7.94 -0.04,15.88c-5.25,0.01 -10.64,-0.2 -15.87,0.11c-0.42,-5.22 -0.12,-10.74 -0.13,-15.99z" fill="#998F9E" id="svg_144" transform="translate(17 -174) scale(0.836773 0.836773)"/>
  <path d="m335.67,719.99l0.31,0.09c0.01,5.25 -0.29,10.77 0.13,15.99l-0.11,0.26c-4.21,-1.05 -11.74,-0.83 -15.96,0l-0.12,-0.26c0.35,-5.27 0.08,-10.78 0.09,-16.07l15.66,-0.01z" fill="#593C81" id="svg_145" transform="translate(17 -174) scale(0.836773 0.836773)"/>
  <path d="m320.04,736.33c4.22,-0.83 11.75,-1.05 15.96,0c0.01,10.55 -0.18,21.14 0.03,31.69l-16.01,-0.01l0.02,-31.68z" fill="#302F50" id="svg_146" transform="translate(17 -174) scale(0.836773 0.836773)"/>
  <path d="m368.03,752.02l16,0.01c0.01,5.29 -0.06,10.6 0.05,15.89l-16.04,0.13c-5.29,-0.22 -10.68,-0.02 -15.98,-0.01c-0.23,-5.31 -0.08,-10.72 -0.09,-16.04l16.06,0.02z" fill="#3B3664" id="svg_147" transform="translate(17 -174) scale(0.836773 0.836773)"/>
  <path d="m368.01,719.99l16,0l0.02,16.01c-0.03,5.27 -0.36,10.79 0,16.03l-16,-0.01l-0.01,-16.02l-0.01,-16.01z" fill="#593C81" id="svg_148" transform="translate(17 -174) scale(0.836773 0.836773)"/>
  <path d="m368.01,719.99l16,0l0.02,16.01l-16.01,0l-0.01,-16.01z" fill="#D3C9C9" id="svg_149" transform="translate(17 -174) scale(0.836773 0.836773)"/>
  <path d="m400.02,704l15.99,-0.01l15.97,0.01l32.07,0l-0.06,16.01l16.04,-0.02l-0.03,16.01l0.02,16l0.01,16l-0.06,16.01l-15.98,-0.04c0.01,-4.99 0.65,-11.07 -0.32,-15.94q-7.85,0.01 -15.71,-0.12l0.04,-15.92l-16,0.01l-16.01,0.01l-16.01,0l-15.95,0.02c-0.36,-5.24 -0.03,-10.76 0,-16.03l-0.02,-16.01l15.99,0.01l0.02,-16z" fill="#695F82" id="svg_150" transform="translate(17 -174) scale(0.836773 0.836773)"/>
  <path d="m431.98,704l-0.02,16.02l-15.95,-0.03l0,-16l15.97,0.01z" fill="#593C81" id="svg_151" transform="translate(17 -174) scale(0.836773 0.836773)"/>
  <path d="m463.99,720.01l16.04,-0.02l-0.03,16.01l-16,0l-0.01,-15.99z" fill="#C2B3AD" id="svg_152" transform="translate(17 -174) scale(0.836773 0.836773)"/>
  <path d="m405.25,455.27l13.42,-0.02l0.01,13.39q-6.74,0.08 -13.48,-0.08c0.16,-4.41 0.04,-8.87 0.05,-13.29z" fill="#998F9E" id="svg_153" transform="matrix(1 0 0 1 0 0)"/>
  <path d="m492.6,564.74q8.06,0.19 16.11,0.1l-0.06,16.01l-15.98,-0.04c0.01,-4.99 0.65,-11.07 -0.32,-15.94l0.25,-0.13z" fill="#593C81" id="svg_154" transform="matrix(1 0 0 1 0 0) matrix(0.836773 0 0 0.836773 0 0)"/>
  <path d="m431.96,720.02l16.06,-0.02l-0.02,31.99l-16,0.01l0.03,-16.01l-0.07,-15.97z" fill="#3B3664" id="svg_155" transform="translate(17 -174) scale(0.836773 0.836773)"/>
  <path d="m416.01,719.99l15.95,0.03l0.07,15.97l-0.03,16.01l-16.01,0.01l0.02,-16.01l0,-16.01z" fill="#593C81" id="svg_156" transform="translate(17 -174) scale(0.836773 0.836773)"/>
  <path d="m416.01,719.99l15.95,0.03l0.07,15.97l-16.02,0.01l0,-16.01z" fill="#D3C9C9" id="svg_157" transform="translate(17 -174) scale(0.836773 0.836773)"/>
  <path d="m400.02,704l15.99,-0.01l0,16l0,16.01l-0.02,16.01l-16.01,0l-15.95,0.02c-0.36,-5.24 -0.03,-10.76 0,-16.03l-0.02,-16.01l15.99,0.01l0.02,-16z" fill="#695F82" id="svg_158" transform="translate(17 -174) matrix(0.836773 0 0 0.836773 0 0)"/>
  <path d="m399.99,736.03l16.02,-0.03l-0.02,16.01l-16.01,0l0.01,-15.98z" fill="#998F9E" id="svg_159" transform="translate(17 -174) scale(0.836773 0.836773)"/>
  <path d="m400.02,704l15.99,-0.01l0,16l-16.01,0.01l0.02,-16z" fill="#998F9E" id="svg_160" transform="translate(17 -174) scale(0.836773 0.836773)"/>
  <polyline fill="none" id="svg_81" opacity="0.5" points="205,583 " stroke-linecap="round"/>
  <path d="m239,669c0,1.65 -0.23,2.61 0,3.43c0.18,0.65 0.99,1.07 1,2c0.01,0.86 0,1.77 0,2.66c0,0.89 0,1.79 0,2.63c0,0.86 0,1.78 0,2.71c0,0.86 -0.29,1.87 0.06,2.63c0.35,0.76 0.7,1.55 1.23,2c0.83,0.7 1.99,0.51 2.57,0.64c0.63,0.15 1.31,0.3 2.03,0.44c0.75,0.15 1.52,0.31 3.11,0.52c0.8,0.1 1.59,0.17 2.37,0.22c0.76,0.05 1.5,0.08 2.88,0.11c0.63,0.01 2.21,0.01 3,0l0.62,-0.02" fill="none" id="svg_163"/>
  <polyline fill="none" id="svg_164" opacity="0.5" points="214 687 215.611 687 216.564 687" stroke-linecap="round"/>
  <rect fill="none" height="0" id="svg_165" transform="matrix(1 0 0 1 0 0)" width="0" x="180" y="515"/>
 </g>
</svg>